<svg version="1.2" xmlns="http://www.w3.org/2000/svg" viewBox="0 0 2930 2069" width="2930" height="2069">
	<title>Novo Projeto</title>
	<style>
		.s0 { fill: #ffffff } 
		.s1 { fill: #000000 } 
	</style>
	<g id="Introduction">
		<g id="variations">
			<g id="images">
				<g id="a-person/bust">
					<g id="body/Hoodie">
						<path id="ðŸŽ¨-Background" fill-rule="evenodd" class="s0" d="m2617.4 2082.5c-323 8.4-649.2 59.5-970.5 6.2-11.5 0-28.8-22.5-17.9-25.2 6-1 11.3-109.9 22.2-153.5 10.1-33.4 19.4-66.6 25.4-101 17.2-99.1 14.9-200.8 35.3-299.5 31.6-132.8 99.8-220.9 177.9-329.6-3.3-3.1-78.1-103.6 47-178.8 61.4-31.5 90.8 0.4 81.3-29.1-5.9-24.4 12.3-43.5 32.5-53.9 28.9-17.2 173.5-11.4 189.8-13.7 29.1-6.2 58.5-38.4 88.9-39.8 73.4-8 130.7 31.7 178.3 88 69.8 0 125 54.8 138.3 113.4 106 47.9 198.9 345.8 211.8 492.1 6.6 72.1 14.4 144 20.5 216.2 9.8 77.3 4 157.7 28.8 231.4 2.3 20.2 14.9 75.2-16.5 76.7-91-3.8-182.1-3-273.1 0.1z"/>
						<path id="ðŸ–-Ink" fill-rule="evenodd" class="s1" d="m2403.7 1189.5c0.1-1.5 2.1-1.5 2.3 0l2.2 21.9c2.8 26.8 5.4 53.5 7.4 80.3 2.4 33.6 4 67.1 4.7 100.6 2.7 117 3.3 234 3.5 351.1q23.7-1.7 47.5-3.2 16.1-1.1 32.2-2l27.4-1.7 11.2-0.7c7.7-0.5 16.3-2.4 21.6 4.4 2.2 2.7 3.2 6.2 1.3 9.4-4.6 7.4-11.7 7.1-19.6 7.5q-11.3 0.4-22.6 0.8c-16.1 0.7-32.2 1.3-48.3 1.7q-25.4 0.7-50.7 1.2c-0.2 49.4-2.2 98.7-4.4 148l-1 22.2c-2.7 60.1-5.7 120.2-9.8 180.1-0.3 4.9-7.3 4.9-7.6 0-4.7-67.5-7.7-135.2-10.8-202.8-2.2-49-3.5-98.1-4.1-147.1q-3.3 0-6.7 0.1c-63.4 0.2-126.8 0.5-190.3-0.1q0.2 0.2 0.3 0.4c4.6 10.9 5 24.7 4.9 36.3-0.1 13.4-1.9 26.6-5 39.5-11 46.5-39.4 88.2-71.7 122.6l-1 1.1c-7.7 8.1-16.4 16.2-21.1 26.4-4.8 10.5-6.4 22.8-8.8 34l-0.3 1.3-9.2 42.7c-2.9 13.5-3.8 33.3-14.5 43.1-10 9.1-23.2 4.3-27.9-7.4-3.7-9.2-0.1-19.2 2.1-28.4l17.1-71.7c2.8-11.7 5.8-23.5 11.9-34 6.2-10.7 15.3-18.5 24.5-26.5 17.6-15.1 33.7-32.4 47.3-51.2 13.6-18.7 25.3-39.3 33.4-61 4.1-10.9 7.4-22.2 9.8-33.6 2.2-10.8 2.1-22 4.5-32.6 0.1-0.8 0.8-1.3 1.5-1.5-0.2-0.5 0.1-1.1 0.7-1.2l51.9-3.3c46.1-3 92.2-6 138.3-9.5l8.2-0.6c-0.7-65.5-0.1-130.9 1-196.4 1.1-60 1.2-120.1 2.9-180.1 0.9-29.8 2.8-59.5 5-89.2 2.1-30.4 5.6-60.6 8.8-90.9zm-487.2 348.1c-0.5-3.3 3.7-5.4 5.6-2.3 22.1 34.8 32.8 72.6 37.2 113.4 4 36 2.8 72.5 0.9 108.5-2.1 38.5-4.6 77-7.1 115.4l-3.8 59-9.6 147.8c-0.7 10.6-3.1 20.2-12.2 25.1-1.1 1-2.3 1.8-3.7 2.6-4.9 2.6-11.5 1.3-14.3-3.8l1.1 0.8q1.5 0.9-3.3-2.6l-2.7-3.6c-2-3-3.3-5.9-3.8-9.5-0.8-5.5 0.2-11.5 0.6-17.1l6.3-96.9c4.8-75.4 10.6-150.7 14.9-226.1 2-35.1 3.4-70.3 2.4-105.5-0.9-35-2.7-70.6-8.5-105.2zm191.1-648.9l1.3-0.2c43.9-7.3 91.6-5.9 131.7 15.2 0.3 0.2 0.1 0.8-0.2 0.7l-12.9-0.5c-40.9-1.6-81.6-2.5-121.8 7.1l-4.1 1c-14.5 3.5-29.6 7.8-41.2 17.4-11.1 9.1-16.7 23.2-22 36.2l-0.7 1.7c-5.4 12.8-12.2 25-24 33-15.4 10.4-33.8 9.1-51.4 10.5-30.9 2.5-56.2 24.9-68.8 52.4-7.6 16.6-10.8 35.2-11.5 53.4-0.3 9.2-0.3 18.8 0.9 28 0.4 3 4 13.7 5.9 13.4 4.1-0.5 7.8 1.6 9.1 4.9 10.2-9.8 20.6-19.4 31.4-28.6 26.9-22.9 55.9-43.7 86.4-61.5 23.3-13.6 47.9-27.1 73.3-37.3-2-0.1-4 0.3-5.9 1.3-0.9 0.5-1.7-0.6-1-1.3 8-8.4 17.6-9.6 27.2-7.4q3.1-1 6.3-1.9c1-0.3 1.5 1.2 0.7 1.7l-2.4 1.5c10.5 3.6 20.9 10.5 29.1 16 23.6 15.8 44.3 35 65.3 53.9l3.9 3.4c18.5 16.6 37.4 32.6 58.5 45.9 11 6.9 22.5 13.4 34.7 18.1 10.4 4.1 27.3 6.7 32.2 17.7 4.3 5.3 2.5 12-2.6 15.5-8.5 9.5-25.6 3.4-35.8-0.6-12.3-4.7-24.2-10.4-35.6-17-22-13-42.3-29.1-61.3-46.2-19.7-17.9-38.4-36.9-57.6-55.3-8.3-8-16.5-16.2-24.8-24.1l-4.2-4c-4.3-4-10.3-10.2-16.8-14-12.2 7.3-24.7 14.3-36.8 21.8-16.9 10.4-33.3 21.6-49.4 33.2-31.1 22.2-60.6 47.2-88 73.9-50.2 49-92.9 105-130.3 164.2l-2.8 4.5c-21.2 34-41.3 69-55.5 106.5-15.7 41.2-23.3 84.6-27.4 128.4-4.1 43.4-5.5 87.1-10.1 130.5-4.7 44.6-14 88.1-24.5 131.6l-2.5 10.3c-9.6 39-19.4 77.9-24.3 117.7-2.7 21.3-4.2 42.9-3.9 64.4 0.4 21.6 3.8 42.7 6.5 64 1.1 8.2-7 15-14.2 16.1-8.3 1.3-15.4-4-18-11.7-8-24-9.4-50.5-9.2-75.7 0.3-25.6 3.5-51 8.1-76.1 9-49.5 23-97.9 34.6-146.7 10.3-43 17.2-86.2 20.9-130.3 3.9-45.7 6.2-91.6 13.2-137 7-44.9 20-87.7 39.7-128.6 18-37.2 40.3-72.3 63.8-106.2 28.5-41.3 59.8-80.5 94.7-116.3-3.1-0.1-6.4-1.1-9.3-3-9.1-5.6-13.3-16.7-14.6-26.8-3-23.6-2.3-48.3 3.8-71.4 9.8-37.2 35.2-70.3 72-83.7 9.5-3.5 19.6-4.8 29.7-5 9.5-0.3 19.9 1 29.1-2 14.7-4.8 21-22.1 26.5-35.2l0.2-0.6c7.1-16.7 15.5-31 30.8-41.4 16.3-11.1 36.7-16.1 55.9-19.4zm417 65.9c13.1-4.5 29.6-0.4 42.5 3.6 14.4 4.5 27.7 12.7 39 22.4 12.1 10.3 22 23 29 37.2l0.7 1.3c6.4 13.2 13.7 31.2 10.4 45.7q-0.1 0.6-0.3 1.2c26.2 12.9 50.3 29 71.4 49.4 24.5 23.9 45.2 51 62.8 80.2 69.7 116.3 82 256 90.2 388.6l2 33.6c4.5 72.6 9.7 145 23.3 216.6l1 5.2c14.6 74.9 35.4 150.5 33.3 227.4-0.7 23-34.7 22.9-35.7 0-3.7-86.2-23.8-169.3-37.4-254.1-24-149.2-12-303-45.9-450.7-13.3-57.9-33.9-114.1-63.4-165.9-14.5-25.5-31.2-50.2-50.7-72.3-16.7-18.9-34.2-37.2-53.8-53.1-6.2 6.2-18.7 3-22-6.1-2.3-6.3-1.6-13.7-3-20.2-1.4-6.2-3.2-12.2-5.7-18-4.9-11.4-12.1-22.5-20.4-31.7-8.9-10.1-19.2-18.4-30.8-25.3-11.6-6.9-24.3-9-36.5-14.1-0.5-0.1-0.5-0.7 0-0.9zm51.2 797.3c0-0.6 0.7-0.9 1.2-0.5 4.6 4.3 7.4 10.4 10.8 15.6q5.9 9.1 12.3 17.7c8.7 11.6 18.3 22.4 28.1 33.1 9 9.9 18.6 19.4 28.6 28.3 10.8 9.7 23 18.4 32.8 29.1 20.5 22.4 23.8 53.2 28.1 82l0.5 3.1q4 25.7 7.2 51.6c1 8.3 2 16.7 2.9 25.1l0.2 2.6c0.8 8.3 1 16.6-3.7 23.8-5.1 7.6-16.5 10.3-23.4 3-11.7-12.7-9.5-35.1-11-51.4q-1.9-20.2-4.3-40.3l-0.8-6.7c-1.9-15.3-3.4-30.8-6.9-45.8-3.1-13.2-9-23.2-18.6-32.8-9.7-9.6-19.7-18.6-28.7-29-9.5-11-18-22.8-25.7-35.1-6.6-10.6-11.9-22-16.8-33.5l-0.8-1.9c-4.7-11.2-12.4-25.7-12-38zm169.2-479.8c0.1-1.5 2.4-1.5 2.5 0q0.4 20.1 0.8 40.2c2.2 108 0.9 216.2 11.7 323.8 5.1 50.8 14.5 100.8 25.4 150.5 5.6 25.5 11.4 50.9 16.9 76.4 5.5 24.8 11.3 49.8 15.5 74.8 4.3 24.7 8 49.5 9.7 74.4l0.2 3.3c0.8 12.1 4.3 29.8-2.4 40.5-7.2 11.7-21 11.9-28.7 0.8-7.3-10.4-5.5-28.9-6.8-41.3-1.3-12.7-2.6-25.3-4.2-37.9-3-24.6-7.1-49.2-11.2-73.6-8.8-50.9-21.4-101.1-30.7-151.9-9.6-52-16.3-104.5-16.6-157.5-0.3-53.4 5.3-106.7 8.2-160.1 2.9-54.1 6.2-108.2 9.7-162.4zm-509.8-335.8c2.9-9.8 13.1-15.9 23.1-13.1 9.1 2.5 16.6 13.6 13.1 23.1-3.9 10.4-10.7 19.2-16.5 28.6-5.3 8.7-13 15.6-18.5 24.1l6 6.4q4.5 4.9 9 9.6l10.4 10.7c8.1 8.4 16.2 16.7 24.6 24.8 24.6 23.8 49.7 46.8 77.2 67.1 6.3 4.7 12.6 9.3 19.2 13.6l2.4 1.6c4.4 2.9 9.4 5.8 14.8 5.3 13.1-1.2 24.9-15.1 33.9-23.8l0.5-0.5c22.3-21.2 43-44.4 61-69.4q6.1-8.3 11.7-16.9c-8.7-10.2-6.6-30.1-7.1-42.5-0.3-8.7-0.4-17.4-0.4-26.1v-1.7c-0.1-5.7-0.4-11.1 3.3-15.7 0.2-0.3 0.6-0.3 0.9-0.1 5 2.6 6.5 7 8.7 11.9l0.2 0.5c2.6 6 5.1 11.9 7.6 17.9 2.6 6.2 5.1 12.5 7.5 18.8q1.7 4.4 3.3 8.9 1 2.8 2 5.6l0.2 0.2q1.3 1.1 2.3 2.4c2.8 1.4 5 3.9 6.1 7.7 2.2 8.1-2.4 14.8-6.6 21.2-17 26.3-36.4 51.4-58 74.1-10.7 11.3-21.9 22-33.6 32.3l-2.1 1.7c-10.5 9.1-21.9 17.7-36 19.8-16.5 2.5-29.8-5.7-42.4-15.2l-1.3-0.9c-11.9-9-23.6-18.4-35-28.2-23.1-20-45.1-41.4-64.6-64.9-19-22.9-37.7-48.5-49.4-76-0.7-1.6 1.1-3.4 2.6-2 5.7 5.4 11.2 11.2 16.6 17 0.2-8.6-1.4-17.2-0.5-25.8 1.1-10.5 0.8-22 3.8-32.1z"/>
					</g>
					<g id="head/No-Hair-1">
						<path id="ðŸŽ¨-Background" fill-rule="evenodd" class="s0" d="m2643.8 726c3 27.6 7.9 55.7 7.5 83.5-2.4 126.5-145.1 167.5-258.3 167.5-38.7 0-156-54.2-167.5-63.2-44.3-35.2-65.2-78-93.3-129.5-4.7-12.1-16.7-20-29.3-23.6-21.1-8.7-36.7-24.9-41.1-47.9-5.2-26.3 3.8-40.8 19.1-60.6 6.9-10.5 1.8-26.9 1-38.7-1.8-27.5 0.4-55.2 6-82.2-1.3-230.9 283.3-314.1 438.2-160.8 51.5 46.6 83.7 104.4 98.4 166.4 14.4 61 11.8 126.2 19.3 189.1z"/>
						<path id="ðŸ–-Ink" fill-rule="evenodd" class="s1" d="m2621.9 505.9c0.1-0.8 1.2-1 1.4-0.2 4.2 14.9 6.6 30.1 9.9 45.3 3.1 14.6 6.1 29.3 8.6 44 4.7 27.8 8.7 55.7 12.4 83.7l0.9 7c6.4 49.2 16.9 100.4 7.7 149.9-7.9 42.2-34.3 76.3-68.4 101.2-32.3 23.6-71.4 38.8-110.3 47.4-41.7 9.3-91.1 12-125-18.6-13.6-12.2 4.9-36.5 19.6-25.5 34.6 26 78.7 18.3 117.7 8l1.2-0.3c34.2-9.1 68.7-23 95.9-46.3 30.1-25.8 45-61.7 46.7-100.9 1-22.1-1.1-44.2-3.3-66.1l-0.3-2.5c-2.5-25-5.2-50.1-7.6-75.2-2.3-22.9-4.2-46-5.3-69l-0.4-11.6c-1-23.3-2.4-47.1-1.4-70.3zm-405.7-194.3c56.3-29.4 121-39.9 183.6-30 60.2 9.4 115.5 40.5 156.8 85.1 20.2 21.8 38.1 47 49.6 74.5 5.7 13.6 10.1 27.9 12.5 42.5 1.2 7.6 2.4 15.4 2.6 23 0.2 7.1-1.8 13.7-1.6 20.9 0 1.1-1.7 1.3-1.9 0.2-2-8-6.7-14-9.7-21.6-2.2-5.7-4.7-11.3-7.2-16.8l-2.2-4.7c-6.4-13.8-14-27-21.5-40.2-15.2-26.4-34.7-50.5-57.5-70.8-40-35.7-91.3-58.7-144.8-62.9-55.6-4.3-112 9-159.5 38.3-47.5 29.4-83.3 75-102 127.6-9.4 26.5-14.6 54.1-15.8 82.2-0.6 14.3 0 28.6 1 42.8l0.5 6.8c0.5 8.1 0.9 16.2-0.3 24.1 8.6-2.7 17.6-3.8 26.6-2.5 13.4 2 21.4 7.5 27.4 19.4 0.3 0.7-0.4 1.3-1 1-7.8-3.9-20.4-1.9-28.6 0.2-8.6 2.1-16.3 5.8-23.6 10.8-13.5 9.2-24.1 23.5-26.6 39.9-2.6 15.8 3.9 31.8 14.9 43.2 5.6 5.8 12.3 10.9 19.8 14 9.1 3.8 18.2 3.7 26.2 10 5 3.9 3.8 10.6 0.4 14.9 17.1 18.7 32.2 39.1 49.2 57.9 7.9 8.7 15.7 17.4 23.3 26.4l2.8 3.3c7.6 9.2 19.6 18.8 23 30.3 2.2 7.1-5.5 16.4-13.2 13.2-11.8-5-20.3-18-28.3-27.9l-0.5-0.7c-8.4-10.3-15.8-21.2-22.7-32.6l-2.2-3.8c-12.3-20.7-24.5-42.2-32.4-64.9q-0.8 0.8-1.6 1.4c-11.3 8.1-27.8 1.9-39.1-3.4-10.6-4.9-20.4-12.3-28-21.3-16.6-19.4-24.3-44.6-18.7-69.8 4.7-21.4 19.5-42.2 38.9-53-9-10.4-12.7-24.3-15.1-37.9-3.2-17.4-3.8-35.2-3-52.8 1.7-35.1 10.8-69.7 24.7-101.8 25-57.5 69.1-105.6 124.8-134.5zm-118.5 383.6c11.8-2.2 22.8-2.8 34.2 2.2 12.3 5.4 21 14.4 29.1 24.9 9.2 12-14.3 25-20.3 9.1l-0.2-0.4c-1.6-4.7-4.4-9.3-8-13.5-1.1 1.7-2.6 3.2-4.3 4-2 1-5.2 0.3-5.7-2.3-0.5-2.9 0.1-6.5 1.8-9l0.2-0.3c-8.2-6.6-18.1-11.4-26.8-13-0.9-0.1-0.9-1.6 0-1.7z"/>
					</g>
					<g id="face/Smiling">
						<path id="ðŸ–-Ink" fill-rule="evenodd" class="s1" d="m2467.7 866.5c-11-4.5-20.7-11.9-27.9-21.4-2.4-3.3-3.1-6.8-2.6-10 0.6-3.6 2.8-6.8 5.6-9 3-2.2 6.6-3.3 10.1-2.7 3 0.5 6.1 2.1 8.5 5.6l0.5 0.7c4.2 5.7 9.7 10.4 16 13.5 6.1 2.9 12.9 4.3 19.9 3.5 13.4-1.6 22.6-8.8 32.4-18.6q1.8-1.9 3.6-3.8c0.8-1.2 1.9-2 3-2.4 1.4-0.4 2.9-0.4 4.2 0.1 1.3 0.5 2.5 1.3 3.3 2.5 0.8 1.1 1.2 2.5 1 4-0.8 10.2-6.2 19.3-13.7 26.4-8.4 7.9-19.5 13.4-30 15.3-11.5 2.2-23.3 0.6-33.9-3.7zm45.5-165.8c62.5 10.7 30.1 118.3-49.6 59.3-9.5-7.7 2-24.5 12.3-18 11 8.5 33.4 27.2 48.9 10.9 13.2-18.5-5.5-35.9-17.8-43.4-3.2-2.3-0.6-10 6.2-8.8zm-149-59.9c1.4-16.8 27-20.6 29.6-4 2.3 15-0.4 28.7-7.1 42.1-6.5 12.9-22.6 6.9-23.8-4.8-1.7-15.7 0.5-22.8 1.3-33.3zm195.2-7.4c3.6-4.7 8.7-7.9 14.9-6.1 19.3 5.7 13.6 33.1 6.8 46.4-3.6 7.3-15.6 9.1-20.9 2.8-8.8-10.5-13-31.3-1.9-41.5q0.5-0.8 1.1-1.6zm-173-66.2l3-0.6c9.5-1.6 21.2-3.2 27.9 4.4 3.5 4 4.8 11.5 0 15.4-8.4 6.8-17.6 4.1-27.7 4.7-8.2 0.5-16.2 1.8-24.2 4.1-17.4 5-31.7 14.1-46.6 24.2-2 1.3-4-1.2-3-3.1 8.6-16.9 25.3-30.7 42-39.2 8.9-4.5 18.7-8.2 28.6-9.9zm155.4-7.6l2.3 0.5c25.4 5.3 58.5 15.9 70.5 40.9 0.5 3.5 0 4.3-0.4 4.8l-0.2 0.1c-0.3 0.4-0.5 1-2.1 1.5q-0.6-0.1-1.3-0.3c-5.5-1.5-9.8-3.5-14.1-5.5l-4.5-2.3c-5.4-2.6-10.7-5.1-16.4-7-12.1-3.9-24.6-6.7-37.3-8.2-2.7-0.3-5.4-1.2-7.5-2.8-1.9-1.5-3.5-3.6-4.1-6.4-0.9-3.6-0.7-6.3 1.2-9.6 1.5-2.4 3.6-4.1 5.9-5 2.5-1 5.2-1.3 8-0.7z"/>
					</g>
					<g id="facial-hair/Full-3">
						<path id="ðŸ–-Ink" fill-rule="evenodd" class="s1" d="m2641.6 1069.4c-104 93.7-329.2 57.7-419.4-44.3-69.2-45.5-62.3-150-55.1-224.5 4.2-37.4 3.6-78.3 20.6-112.4-1.3-8.5 10.8-14.7 14.7-6 18.4 41.6 37.5 84.4 66.9 119.4 27.7 38.5 111.9 90 128.4 16 21-46.3 101.4-54.7 145.9-47.4 57.6 14.8 29.9 74.2 86.6 68.3q1 0.3 2.1 0.2c3.4-4.6 5.7-11.2 8.2-16.5-0.2-1.2-0.6-2.4-0.7-3.6 3.3-4.9 8.6-7.4 15.3-4.9q0.3 0.8 0.6 1.8c17.5 82 21.9 176.5-14.1 253.9zm-80.4-195.2c-0.8-15.1-13.7-44.1-31.2-51.3-35.9-8-98.9 5.6-83.6 54.9 3.7 8.9 14.5 20.4 25.4 16.9 8.3-2.7 10.4-16.3 15.8-22.3 21.8-21.5 38.7 5.6 53.9 19.1 11.6 7.8 20.2-7.1 19.7-17.3z"/>
					</g>
					<g id="accessories/*-None">
					</g>
				</g>
			</g>
		</g>
	</g>
	<g id="Introduction">
		<g id="variations">
			<g id="images">
				<g id="a-person/bust">
					<g id="body/Striped-Pocket-Tee">
					</g>
					<g id="head/Flat-Top-Long">
					</g>
					<g id="face/Smiling">
						<g id="Pasta 1">
							<path id="ðŸŽ¨-Background" fill-rule="evenodd" class="s0" d="m1570 1074.6c75-5.4 178 9.5 199.7 95.1 6.7 31.2 20 44.8 42.3 65.2 141.4 181.2-352.2 211.6-377.6 35-53.4 19.5-111.6 23.6-165.1 43.3-29 10.7-55.3 27.6-80.5 45.3-102.8 73-204.2 148.2-306.6 221.7 39.6 18.3 115 88 84.3 134.8-7.2 9.2-17.8 15.5-27.2 22.1l-4.9 3.6c-10.7 7.6-28.6 20.6-38.5 27.7l-1.9 1.3c-0.7 0.6-1.5 1.1-2.2 1.7 71.5 104.6 155.2 201.1 248.1 287.3 7.9 7.4 4.6 23.8-6.8 25.7l-13.6 2c-44.1 6.4-88.9 12.2-133.3 8.7-43.2-4.7-69.2-42.9-98.7-70.7-59-60.3-113.9-124.6-163.9-192.6l-1.1-1.4c-15.5-21.3-36.2-43-37.7-70.5-2.8-8.2 4.5-20.1 11.5-25.7l2.3-3.5c37.4-53.8 79.8-105.6 132.8-144.6-0.2-5.8 2.5-11.9 7.8-15.8l221.6-160.4c57.2-39.4 110.3-85.6 172.3-117.4 63.4-30.6 134.9-31.8 199.8-57.2 1.4-18.4 40-23.1 38.8-20.2 40.7-24.6 61.7-53.9 68.1-80.8 6.5-26.8-1.5-51.4 30.2-59.7zm548 576c68.5-103.2 133.9 11 162.4 79.8 33.7 94.1-36.1 209.9-81.2 291-16.6 22.6-38.5 70.1-67.7 73.5-73.8-0.3-147.7-5.5-221.5-7-47.6-11.8 19.3-83.5 65.4-57.3 14 5.2 21 21.1 34.7 26.2 4.9 1.1 5.3-1.1 7.3-6.1l0.3-0.7c3.6-8.5 7.1-17.2 10.6-25.8 30.1-74 61.9-147.3 93.4-220.7 6.8-15.9-2.7-29-15-38.5-9.4-7.8-49.9-26.7-11.7-18.4-14.7-34.1 2.9-68.7 23-96zm-170.1-141.2c6.6-0.8 15 5.8 16.1 12.3 8.4 53.4-1 106.2-12.2 158.4l-2.1 9.6c-4.2 19.1-8.8 38.5-19.1 55.2-10.6 17-26.5 29.9-44.9 37.7-58.8 23.4-131.9 0.3-175.1-43.6-27.7-37.9-3.4-85.5 1.3-127.1-4.4-11.2-6-24.1-8.6-35.6l-0.3-1.4-9.9-43.1c-2.1-9.5 4.8-22.5 16.2-21.2 79.2 9.1 159.4 8.7 238.6-1.2z"/>
							<path id="ðŸ–-Ink" fill-rule="evenodd" class="s1" d="m2224.8 1637.1c-0.3-1.1 1-1.9 1.8-1.1 14 13.5 23.8 30.7 34.6 46.6 10.3 15.2 21.5 29.7 29.2 46.5 7.2 15.5 11.8 31.3 13.1 48.4 1.4 17-0.4 34-3.4 50.8-5.9 32.9-18.5 64.1-32.3 94.4-13.4 29.5-28.6 58.1-44.6 86.2l-5.8 10c-7 12.2-14.1 24.4-21.7 36.2-9.4 14.8-18 30-30.5 42.2-8.8 8.8-25.5 0-21.5-12.5 1.8-5.4 3.2-10.5 5.9-15.6 2-3.8 4.4-7.6 6.5-11.4 4.4-7.5 8.7-15.2 13.1-22.7 9.2-16 18.8-31.6 27.9-47.6 15.7-27.8 30.6-56 43.8-85.1l1.5-3.4c12.1-27 23.6-54.9 28.9-84 5.6-30.7 0.6-59.6-10.3-88.5-5.7-14.9-12-29.5-18.6-44l-1.2-2.8c-6.4-13.8-13.2-27.6-16.4-42.6zm-677.4-530.9c0.2-0.5 1.1-0.6 1.2 0 3.9 26.1-4.8 53.7-19 75.3-7.8 11.9-17.3 22.6-28.6 31.2l-0.9 0.6c-11.5 8.6-27 16.9-41.3 11.4q-0.7-0.3-1.3-0.6c1.6 2.5 3.1 5.1 4.6 7.7 4.5 7.8 8.6 15.9 12.9 23.7 7.9 14.1 17.2 26.7 29 37.7 47.2 44 113.4 54.5 175.6 54l4.4-0.1c27.3-0.1 63 1.2 84.1-18.5 11.3-10.7 17.6-25.8 23.2-39.9 5.5-13.9 9.3-28.3 13.9-42.4-9.6-6.6-18.4-14.6-25.3-24.1-7.2-9.8-12.7-20.8-15.8-32.6l-0.5-1.7c-2.4-9.4-4.9-21.8-1-30.7 0.5-1 2.2-0.9 2.6 0 2.1 4.3 2.6 9 3.9 13.6 1.5 5.3 3.2 10.5 5.4 15.5 4.4 9.7 10.1 18.9 17 27 5.7 6.6 11.9 12.8 18.9 17.9 4.2-7.2 13.8-8.1 21.9-5.8 10.8 3.2 21.5 7.3 31.9 11.5l2.1 0.9c10.3 4.3 22 8.2 31.6 14.1 5.9 2.8 11.5 5.6 16.8 8.1 26.4 12.3 52.3 25.5 78.2 38.9l5.5 2.9c10.8 5.6 21.6 11.3 31 19.2 9.5 8 17 18.9 24 29.2 16 23.4 31 47.5 46.9 71.1 31.9 47.6 63.8 95.2 95.9 142.7 7.8 11.5 16.5 22.7 23.5 34.7 6.7 11.4 6.5 23.2 5.2 35.9l-0.3 2.4c-2.4 23.4-6.7 45.9-19.9 66-20.7 31.6-53.3 51.3-87.8 64.9 4.3 3.1 8.2 6.5 13.2 8.6 7.8 3.3 16 5 24.4 5.7 8.9 0.7 18.9-1.5 26.1 4.6 2.9 2.4 3 8.2 0 10.6-6.9 5.7-15.9 4.1-24.3 3.1h-0.5c-7.9-0.9-15.6-2.3-23-5.2q-2.7-1.1-5.4-2.4 0.1 0.2 0.1 0.5c-1.3 9.7-4 18.8-6.9 28l-1.8 5.8c-3.7 12-7.5 23.8-11.4 35.7-7.3 22.7-15.3 45.1-23.3 67.5l-7 19.4c-7.1 19.8-14.3 39.6-22.3 59.1q-7.4 18.1-14.8 36.1c-4.8 11.7-8.8 24.4-14.8 35.6-4.9 9.2-18.4 2.6-16.2-6.8 2.8-12.5 8.1-24.8 12.2-36.8 4.2-12.3 8.2-24.6 12.4-36.8 7.3-21.3 15.5-42.2 23.6-63.2l8.1-20.7c7.9-20.4 15.9-40.7 24.5-60.8l0.9-2.2c8.9-21 18.1-44.6 34.3-60.9 0.2-0.2 0.5-0.3 0.8-0.4-4-2.1-7.7-4.7-11-7.8l-0.1-0.2c-1.3-1.4-6.7-8.1-8.4-12.2q-3.3 1.2-6.7 2.4c-3.9 1.3-7.1 0.3-9.4-1.8l-4.3 2.7c-4.7 2.9-9.7 5.6-14.8 5.7-6.5 0.2-11.6-3.4-15-8.7-3.1-4.7-5-9.8-8.9-14-3.9-4.1-8.3-7.6-12.9-10.9l-5.4-4c-9.9-7.2-19.5-14.5-27.4-24-4-4.8-9.4-10.5-11.8-16.3-0.5-1.1-0.8-2.2-0.8-3.2q-0.8 5.4-1.7 10.8c-7.6 50.9-13.8 102-15.7 153.4-1 25.4-1.4 50.7-0.3 76.1q0.8 19 2.8 37.9c0.6 6.4 1.2 12.7 2 19l0.2 1.4c0.2 2 0.4 3.8 0.2 5.6 6.1 3 9.7 10.7 12.1 16.7 1.9 4.6 0.5 9-2.6 12.2 3.7 3.3 6.9 7.2 9.6 11.6 0.5 0.9-0.7 1.6-1.4 1-4.4-3.5-9.2-6.4-14.1-8.6-2.7 1-5.5 1.2-8.1 0.5-2.9-0.8-5.4-2.7-7.1-5.1-14.2-2.3-28.9 0.5-41.6 9.4-2.7 1.8-5.1 3.9-7.3 6.2-0.4 0.4-0.8 0.9-1.2 1.4l2.7 1c1.2 0.5 2.1 0.8 2.5 0.9 2.4 0.5 4.9 0.7 7.3 0.9l3.7 0.3c14.2 1.2 28.3 1.6 41.5 7.5 2.8 1.3 1.8 5.6-0.8 6.3-9.6 2.6-19.2 2.4-29 1.7l-2.1-0.2c-9.1-0.7-18.9-0.6-27.7-3.1 2.1 5.8-0.8 13.4-9.7 14.6-26.7 3.5-53.5 1.8-80.2-0.5-27-2.4-54-4.6-81-6.1-87.5-4.6-175.1-3.7-262.6-2.4l-49.5 0.7c-39.5 0.5-78.9 1-118.4 0.7l-18.5-0.2c-7.8-0.1-15.6-0.2-23.4-0.4l-4.6-0.1c-9.3-0.4-21.6 1-29.7-4.5-6.7-4.5-8.1-12.8-4.1-19.5 1.1-2 2.7-3.7 4.4-5.4 3.4-29.1 5.3-58.5 7.3-87.8 6.8-102.5 2.8-204.6-12.9-306.1-42.1 12.9-83.5 29-123.9 46.3-21.8 9.4-43.5 19.1-65 29.3-19.6 9.3-39.3 20.9-60.2 27-1.9 1.7-4.6 2.5-7 1.7l-0.3-0.1c-2.1 0.5-4.5 0.2-6.9-1.2q-0.7-0.4-1.4-0.9l-0.7-0.4c-7.4-4.7-14.8-10.4-20-17.4-6.4 5.9-13.2 11.3-19.9 16.7q-10.9 8.9-21.7 17.9c-2.9 2.4-6 4.7-8.5 7.5l-0.4 0.4q-0.1 0.1-0.1 0.2c10.8 7 20.4 17.7 28.9 27 9.2 10 18.1 20.3 26.9 30.7l8.5 10c60.1 71.1 120.9 144.7 198.8 197 12.3 8.2 0.6 28.3-11.6 19.9-23.2-15.9-45.1-33.6-66.1-52.3-36.8-32.6-70-69.2-101-107.3-15.8-19.3-31-39.1-45.9-59l-5.1-6.8c-6.8-9-13.5-18-19.9-27.2l-1.4-2c-5.6-8.1-11.6-17.3-15.3-26.6-1.4 1.4-2.9 2.6-5.3 3.5-3.9 1.5-8.7-1.7-9.7-5.6-2.4-9.3 5.8-14.9 12.4-19.8 8-6 16.1-11.8 24.3-17.6l3-2c10.2-7.3 20.5-14.7 31.6-20.5q0.5-0.7 1.2-1.2 0.8-0.6 1.6-1.2c-13.3-21.6-27.9-42.4-44.2-62-12.3-14.8-25.3-28.9-39-42.3l-6.2-5.9c-9.4-9.1-19.1-18.2-29.5-26.1l-3.2 3.7c-4.4 4.9-8.8 9.8-13.4 14.4-9.1 9.1-18.1 18.3-27.1 27.6-14.8 15.3-29.2 31.2-43.5 47.1l-7.2 7.9c-14.9 16.6-30.9 32.8-44.4 50.5l-0.7 0.9c-5.9 8-10.1 16.8-7.4 26.8 2.7 9.8 9 18.4 14.4 26.8l0.6 0.8c22.2 34.6 45.9 68.3 71.4 100.6 51 64.6 109.2 125.9 178.7 170.8 9.6 6.2 0.6 21.7-9 15.4-40.6-26.5-77.8-58.4-112.1-92.6-31.5-31.4-60-65.9-86.7-101.4q-19.5-26-37.5-53.1c-11.6-17.5-25-35.6-33.4-54.9-4.4-10.2-6-21.2-2.4-31.9 3.3-9.9 9.8-18 16.6-25.7l0.7-0.8c15.6-17.5 31.6-34.9 47.7-52.1 16.1-17.3 33-34 50.2-50.1 13.5-12.8 27.6-24 42.7-34.4q-2-1.4-4.1-2.7c-4.2-2.8-5.3-8.6-1.6-12.4 10.1-10.2 21.7-19 32.7-28.3q15.4-13.1 30.8-26.2 31.4-26.6 62.8-53.2c37.6-31.9 75-64.1 112.4-96.1 15.7-13.4 31.4-26.5 47.2-39.8l27.9-23.5 13.7-11.5c7-5.8 14.1-11.6 22.1-16.1 18.7-10.5 41.2-15.1 61.9-20.7l1.4-0.3c23.1-6.4 46.4-12.4 69.8-17.7q35.1-7.9 70.6-14.5c21.2-4 43-7.3 64.6-7.8 5.4-2.1 12.1-2.8 17.4-0.6 2.2 0.9 4.5 2.2 6.5 3.9 10.6-3.7 21.1-5.5 30.9-11.8 9.9-6.3 18.7-14.5 26-23.6 15.2-18.9 23.2-41.1 28.5-64.4zm243.5 637.9c-8.4-0.6-16 2.9-23.5 6.6q6.4 2.8 12.7 5.5l28.1 12c9.3 3.9 19.2 7.4 28 12.3q0.9 0.5 1.5 1.2c9.2-5.9 18.9-11.1 28.2-16.7q3.2-1.9 6.4-3.8c-11.1 3.7-22.5 5.6-34.5 2.1-16-4.7-30-18-46.9-19.2zm23-28.1l-1.5-1.1c-8.2-5.5-17.9-12.7-27.8-7.7-4.6 2.4-8.5 6.2-13 8.7-4.7 2.6-9.7 4.6-14.9 5.8-8.5 1.9-18.3 2.2-27.5 0.3l0.1 12.5q10.4 4.3 20.8 8.7c4.5-1.5 8.8-3.3 13.3-5.4l3.1-1.3c8.8-4 17.6-6.6 27.2-5.4 18.2 2.4 32 15.9 49.4 20.4 21.3 5.6 40.6-10.4 60.7-14.3 3.4-0.7 6.8-1 10.2-1.1h1.1l0.5-0.3c4.4-2.6 10.9-5 13.9-9.3 3.3-4.6 3.6-12.4 4.6-17.9q0.2-0.8 0.4-1.6c-1.9 0-3.9 0.1-5.8 0.5-6.2 1.1-12 3.3-17.7 5.7-10.9 4.6-21.5 9.9-32.9 12.9-11.2 3-22.8 4.5-34.4 2.8-11.2-1.6-20.5-6.7-29.8-12.9zm1.7-43.7l-1.7-1.1c-4.4-2.9-9.5-5.8-14.9-4.8-4.9 1-9.1 4.9-13.3 7.3-9.3 5.2-19.8 8.1-30.4 8.8-8.9 0.6-18.1-0.5-26.6-3.1l0.3 27.5c3.1 1 6.4 1.7 9.8 2 10.3 0.7 20.3-1.7 29-7.4l4.4-2.9c7.5-5 14.5-8.9 24.4-7.1 9.9 1.8 18.1 8.1 26.1 13.6l1.4 0.9c9.2 6.1 18.5 10 29.8 10.1 12.2 0.1 24.3-3.3 35.7-7.5 11.3-4.1 22-9.1 34.1-10.6 3.7-0.5 8.2-0.6 12.4 0.1q0.9-4.7 1.6-9.4 1.6-10 2.9-20.1c-21.5-5.7-41.2 12.9-61.1 18.7-11.6 3.3-24.1 3.3-35.7 0.1-10.7-3-19.1-9.2-28.2-15.1zm0.1-46.4c-4.6-0.8-9.1 1.3-13 3.4-9.9 5.5-18.5 13.2-29.7 16.1-14.5 3.7-30.3 0.5-44.6-5.6q0.1 12.8 0.2 25.5 4 1.5 8.3 2.5c10 2.3 20.7 2 30.5-0.9 10.1-3 17.9-10.9 28-13.4 10.3-2.6 20.1 2.4 28.4 8l2.5 1.8c9.5 6.4 18.8 12 30.7 13.1 12.6 1.2 23.6-2.7 34.8-8l2.7-1.2c14.2-6.5 32.7-14 47-6.5q1.6-15.9 2.4-31.8c-1.9-0.7-4-1.3-6.3-1.3-5.6 0-11.4 1.8-16.6 3.6-11.4 4-22 10-33.3 14.3-10.6 4.1-22.5 6.2-33.9 4.4-10.5-1.7-18.4-7.2-25.7-14.8l-1.1-1.1c-3.2-3.4-6.6-7.1-11.3-8.1zm8.3-39.3c-5.2-2.7-11.7-5.3-17.8-4.5-5.8 0.8-9.7 4.7-13.2 8.9l-2 2.3c-6.4 7.6-12.7 14-22.6 17.1-10.2 3.2-21.1 2-30.6-2.7-3.4-1.7-6.5-3.8-9.7-5.9l0.2 22.4c6.3 3.1 12.7 6 19.8 7.7 13 3.2 24.1 0.8 35.3-6.4l1.1-0.8c8.4-5.5 17-12 27.4-12.7 10.1-0.6 17.7 5.1 24.4 11.9l0.8 0.8c8.4 8.9 16.9 13.2 29.4 12.2 12.1-1 23.5-6.3 34.6-10.9l1-0.5c10.1-4.1 21.8-8.4 33-6.8 2.7 0.3 6.1 1.2 9.2 2.6 0.4-10.4 0.7-20.9 0.7-31.4-6.3-5.4-16.2-6.4-24.1-4.1-12.5 3.5-22.6 12.6-34.5 17.6-10.5 4.3-21.5 5.3-32.2 1.2-11.1-4.3-19.8-12.5-30.2-18zm120.3-43.9c-18.6 0.6-36.7 12.7-54.5 17.3-19.8 5.1-35.9-1.9-53.6-9.6l-2.2-1.1c-9.1-3.9-18.8-7.5-28.8-5.9-9.8 1.6-18.5 7-26.9 11.9l-1.6 1c-15.3 8.7-30.9 14.7-48.8 13.2 0.1 5.6 0.1 11.2 0.1 16.7 2.9 1.6 5.8 3.6 8.4 5.3l1 0.6c8.5 5.3 17.3 8.8 27.5 5.5 9.8-3.1 14.4-11.7 21.2-18.7 6.2-6.5 14.2-10.4 23.3-10.1 9.8 0.4 19 4.7 27 10 8.1 5.2 15.9 12 25.3 14.6 21.2 5.9 39.3-16.5 59.3-19.9 8.4-1.5 17.7 0.4 24 5.4-0.1-12-0.3-24.1-0.7-36.2zm-159.8-5.1q-3.9 0.2-7.8 0.3-14.6 0.7-29.1 1.5c-6.7 0.3-14.9 2.4-21.5 0.3q-0.3 1.1-0.7 2c1 4.9 1.6 10.1 2 15.2 6.1 0.7 12.2 0.5 18.2-0.8 14.4-2.9 26.1-12 38.9-18.5zm159.5-4.2c-35.3 2.5-71 1.6-106.4 2.4l-4.2 0.1q-0.3 0-0.5 0c4 1.6 8.1 3.4 12.1 5.2l4 1.9c9.5 4.3 19.1 7.9 29.7 7.1 11.4-0.8 22.1-5.4 32.8-9.2 10.1-3.6 21.8-6 32.6-4.4q0-1.5-0.1-3.1z"/>
							<path id="ðŸŽ¨-Background" fill-rule="evenodd" class="s0" d="m1651 578.5c79.4 0 195.7 53.1 204.4 104.1 10.3 60.2 33.2 286.5 20.7 360.5-12.4 74-61 128.7-168.5 128.7-107.4 0-187.6-58.6-206-78.7q-18.4-20.1-40.7-82.8-58.8-9.9-59.1-56.8-0.3-47 29.5-61.5-16.1-194.6 17.8-242.8c33.8-48.2 122.4-70.7 201.9-70.7z"/>
							<path id="ðŸ–-Ink" fill-rule="evenodd" class="s1" d="m1628 469c14.6 0.3 29.3 0.8 44 2q1-0.1 2.1-0.2c27.6-2.6 55.1-0.3 82.7 0.9 26.2 1.1 54 3.8 77.6 16.4 3 1.6 5.6 3.5 7.8 5.5 3 0.4 6 1.3 8.6 2.8 7.6-1.6 16.1 1.8 17.9 10.7 2.6 12.9 3.6 25.9 2 39q0 0.5-0.1 1c3.2 12.1 3 25.4 0.3 37.4 1.1 15.1 1.8 30.3 1.9 45.5 0 10.5 0.5 21.2-0.5 31.6-0.8 9.2-4.6 16.5-10.6 23.5-1.1 1.3-3 1.5-4.6 1.2q-0.6-0.1-1.1-0.3c3.6 7.7 6.5 15.8 9.4 23.6 4.6 12.4 9.1 25 12.2 37.9 6.5 25.9 10.7 52.3 13.2 78.9 4.3 47.2 6 94.9 6.8 142.4 0.8 45-3.1 91.9-28.8 130.4-22.4 33.6-56.5 58-94.4 71.2-21.7 7.5-45.6 10.3-68.4 11-11.8 0.4-23.6-0.1-35.4-1.4-11.3-1.2-23.1-1-31.4-9.6-2.3-2.4-2.3-7.3 1.1-8.8 6.4-2.9 10.8-3.2 17.8-2.3q8.8 1.2 17.6 1.9c12.6 0.8 25.2 0.9 37.8-0.1 23.2-1.8 46.8-8.3 67.9-18.2 32.9-15.6 61.2-41.1 76.5-74.5 17.7-38.9 16.6-83.9 15.8-125.6-1-45.8-2.6-91.4-6.6-137-1.9-22.1-4.9-44.1-7.6-66.1q-2.1-17.6-5.6-34.9c-1.2-6.1-2.7-12.2-4-18.2q-1.4 0.2-2.9 0.2c-5.8 0.2-12.2-1.2-16.6-5.3-1.6 1.1-3.7 1.8-6.3 1.9-24 1.2-48.5-0.2-72.6-0.3q-36.2 0-72.5 0.1c-24.2 0.1-48.4 0.3-72.5-0.3-22.5-0.6-45.8-0.2-68-4.3-7.4 26.5-7.1 55.7 8.4 79.3 4.4 6.7 0.8 14.6-4.9 18.8-5.9 4.2-16.4 10.7-25.4 11.4-0.8 2-1.7 3.9-2.6 5.9-4.3 9.7-8.1 19.6-10.8 30q-2.1 8-3.7 16.2 0.2 1.4 0.3 2.9 0 0.1 0 0.3c0.1 0.4 0.2 0.8 0.2 1.1q0.8 4.1 1.6 8.2 1.9 9.9 3 20c1.3 12.4 1.2 28.4-10.8 35.7-6.4 3.9-14.1 3.5-20.9 0.9-4.6-1.8-8.5-4.3-12.7-6.8-2.5-1.4-5.1-2.6-7.5-4.1q-1-0.7-1.9-1.5c-4.6 1-9 2.8-11.5 4-6.6 3.4-12.5 8.2-17.5 13.7-10.6 11.7-13.8 28.3-12.3 43.6 1.4 14.3 7 30.7 18.3 40.2 4.9 4.2 11 6.6 17.5 6.5 3.2 0 6.2-0.7 9.2-1.5 3.1-0.8 6.8-0.6 9.6-1.7 4.2-1.6 9.3 3.4 7.6 7.6-1.3 3.1-2 5.9-3.6 8.4 11.6 18.9 24.3 37.2 37.8 54.8 12.1 15.9 26.5 29.2 40 43.7 6 6.4 8.5 19-2.3 21.8-10.8 2.7-18.9-8.9-25.1-15.9-25.6-29.2-45.1-62.7-54.1-100.6-4.1 2.9-8.8 4.5-13.8 5.2-9.8 1.3-19.8-0.6-28.5-5.6-32.7-18.9-40.6-70-25.3-102 3.7-7.7 9.2-14.6 15.8-20-0.5-1-0.7-2.2-0.4-3.4q0.9-3.3 2-6.6c-0.8-0.3-1.3-1-1.2-2q0.9-9.5 1.8-18.9c-0.2-9.5-0.7-19-0.6-28.6 0.2-15.3 1.1-30.5 1.2-45.8 0.2-53.2 2.3-106.3 2.5-159.5 0.1-26.1 0.1-52.1-0.6-78.1q0-0.5 0-1.1c-0.6-20.8-6.1-48.6 14.3-62.1 3.3-2.2 7.5-2.2 11.1-0.8 10.5-7.3 23.6-10.8 36.2-12.8 23.9-3.9 48-5.8 72.1-8.2 12.5-1.3 25.7-1.8 38.4-1.5 12.8 0.3 25.7-0.9 38.6-0.7zm-193.9 465.8c4.6-4.4 11.4-3.4 17-2.3 7.8 1.4 15.4 4.8 22 9.2 7 4.7 15.8 11.2 17.2 20.2 1.3 8.2-6.9 17.3-15.3 11.8-7.8-5.1-11.6-14.5-18.3-20.9-3.3-3.2-6.8-5.9-10.6-8.4-1.7-1.2-3.4-2.5-5.3-3.3-0.1-0.1-7.8-2.6-6.3 0.7 0.5 1.1-0.8 2.3-1.8 1.3-2.6-2.7-1.1-5.9 1.4-8.3z"/>
							<path id="ðŸ–-Ink" fill-rule="evenodd" class="s1" d="m1739.9 1070.7c-9.5-3.8-17.8-10.2-24-18.4-2.1-2.9-2.7-5.9-2.2-8.6 0.5-3.1 2.3-5.9 4.8-7.8 2.5-1.9 5.6-2.8 8.6-2.3 2.7 0.4 5.3 1.8 7.4 4.8l0.4 0.6c3.6 5 8.4 9 13.8 11.6 5.2 2.5 11.1 3.7 17.1 3 11.5-1.3 19.4-7.5 27.9-16q1.5-1.6 3.1-3.2c0.7-1.1 1.6-1.7 2.6-2 1.1-0.4 2.4-0.4 3.6 0 1.1 0.4 2.2 1.2 2.8 2.2 0.7 0.9 1 2.1 0.9 3.4-0.7 8.8-5.3 16.6-11.8 22.7-7.3 6.9-16.8 11.6-25.8 13.2-10 1.8-20.1 0.5-29.2-3.2zm39.2-142.7c53.7 9.2 25.9 101.8-42.7 51-8.2-6.6 1.7-21.1 10.5-15.4 9.5 7.2 28.8 23.3 42.1 9.3 11.4-15.9-4.7-30.9-15.3-37.3-2.7-2-0.5-8.6 5.4-7.6zm-128.3-51.5c1.2-14.5 23.3-17.8 25.5-3.5 1.9 12.9-0.4 24.7-6.2 36.2-5.5 11.1-19.4 5.9-20.4-4.1-1.4-13.5 0.4-19.6 1.1-28.6zm168-6.4c3.1-4.1 7.5-6.8 12.9-5.3 16.6 4.9 11.7 28.5 5.8 40-3.1 6.2-13.4 7.8-18 2.3-7.6-8.9-11.2-26.8-1.6-35.7q0.4-0.6 0.9-1.3zm-148.9-57l2.6-0.5c8.2-1.4 18.3-2.8 24 3.8 3.1 3.4 4.1 9.9 0 13.2-7.2 5.8-15.2 3.6-23.8 4.1-7.1 0.4-14 1.5-20.8 3.5-15.1 4.3-27.3 12.2-40.2 20.8-1.7 1.1-3.4-1-2.6-2.6 7.4-14.6 21.8-26.5 36.2-33.8 7.7-3.8 16.1-7.1 24.6-8.5zm133.8-6.6l2 0.5c21.8 4.5 50.3 13.7 60.6 35.2 0.4 3 0 3.7-0.3 4.1l-0.1 0.1c-0.3 0.4-0.6 0.9-1.9 1.3q-0.5-0.1-1.1-0.3c-4.7-1.2-8.5-2.9-12.1-4.7l-4-2c-4.5-2.2-9.2-4.4-14-6-10.5-3.4-21.2-5.8-32.1-7.1-2.4-0.2-4.7-1-6.5-2.4-1.7-1.3-3-3.1-3.6-5.5-0.7-3.1-0.5-5.4 1.1-8.2 1.3-2.1 3.1-3.5 5.1-4.4 2.1-0.8 4.5-1 6.9-0.6z"/>
						</g>
					</g>
					<g id="facial-hair/*-None">
					</g>
					<g id="accessories/*-None">
					</g>
				</g>
			</g>
		</g>
	</g>
	<g id="Introduction">
		<g id="variations">
			<g id="images">
				<g id="a-person/bust">
					<g id="body/Shirt-and-Coat">
						<path id="ðŸŽ¨-Background" fill-rule="evenodd" class="s0" d="m1163.2 2072.1c-12.7 8.6-29.8 9.8-44.7 10.7-163.2 9.6-326.5 19-489.7 28.6q-61.2 3.6-122.3 7.1c-39.7 2.3-79.5 4.9-119.4 4.6-40.5-0.2-80.8-3.3-121-8.8-24.5-3.4-60.1-12-64.5-41.4-0.7-4.3 3.1-6.9 6.2-6.3-1-4.8-1.7-9.6-2.3-13.8-2.6-17.8-4.2-35.7-5.1-53.7-1.6-36-0.2-72.1 3.4-108 6.4-63.6 15.5-127.2 24.8-190.5 9.2-62.5 20.1-124.9 37.2-185.7 15.7-56.2 36.5-111.1 75.9-155.2 35.6-39.8 82.5-69.2 132.1-88.2 4.3-1.6 8.1-0.3 10.9 2.3 1.9-2.3 4.4-3.9 7.4-4.4q14.1-2.4 27.7-6.2 3.4-1.9 6.4-4.6c4.9-4.5 11.9-5.7 17.6-3 24.6-9 47.9-21.3 69.4-36.8 6.6-4.7 16.5-1.4 20.7 4.9q2.1-2.8 4.1-5.5c-2.3-2.5-3.7-5.9-3.5-10.3 0.9-16.7 6.9-31.8 17.2-44.9 20.7-26.2 53.1-36.5 85.3-34.5 21.9-0.8 43.6 4.9 62.1 17.4 17 8.9 32 21.1 42.7 36.8 9.4 13.7 3.4 34.8 12.7 48.5 7.1 10.6 28.4 10.1 38.8 17.2 24.8 17 54.9 43.4 80.8 58.6 28.7 16.9 51.8 35.8 69.8 63.8 19.1 29.6 32.3 57.6 44.5 90.5 26.2 70.9 44.4 143.3 57.4 217.7 13.2 75.4 21.1 151.8 27.2 228.1q4.5 57.4 7.6 115c1 19.3 0.1 38.1-17.4 50z"/>
						<path id="ðŸ–-Ink" fill-rule="evenodd" class="s1" d="m384.8 1692.8c-0.6-1.1 0.7-2 1.6-1.3 19.8 17.4 30.2 45.4 32.4 71.2 2.3 27.4-1 55.7-2.2 83.1-1.4 30.5-2.7 61-4.4 91.5-1.7 30.9-3.6 61.8-5.2 92.8l-3.5 69.5c-0.4 7.4 0.4 16.6-2.4 23.5-4.4 10.7-17.5 9.1-20.3 0.1l-0.1-0.3-0.2 0.2c-2.4-8.1-0.6-17.7-0.2-26l3.7-76.1c2.7-53.7 5-107.4 7.9-161.1l1-17.9c1.3-24.2 2.3-48.2 3.1-72.3l0.3-8c0.8-24.2 0.1-47.1-11.5-68.9zm480.4-446.1c11-1 19.4 2.7 29.4 6.5 4.4 1.7 8.5 3.6 12.7 5.6 5.2 2.6 8.6 7 11.8 11.7l1.8 2.5c13.4 19.8 22.5 42.5 32.7 64 11.9 25.1 24 50.1 35.6 75.3l5.8 12.5q4.3 9.3 8.6 18.6l4.9 10.9c4.9 11 9.3 22.6 2.3 34-6.5 10.6-18.1 18.7-27.2 26.9q-11.4 10.2-22.9 20.4c15.8 15.8 26.4 35.7 32.6 57.1 8.8-3.7 19.6-4.4 28.8-6 12.8-2.3 14.4 17.1 2.3 16.9-8.9-0.2-19.4 0.7-28.6-1.2 1.6 7.1 2.8 14.2 3.5 21.3 3.9 37.4-4.5 75.1-13.3 111.3l-0.7 2.9c-9.6 39.2-18.6 78.5-26.7 118q-12.1 59.4-21.8 119.2c-6.6 40.6-11.2 81.4-16.2 122.2-0.8 6.2-4.7 11.5-11.5 11.5-5.7 0-12.2-5.3-11.5-11.5 5.2-44.4 12.5-88.6 19.8-132.8 12.5-76 28.3-151.3 46.4-226.2l3.2-13c8.2-33.8 15.6-68.7 11.5-103.5-3.4-28.4-15.2-58.7-38.7-76.4l-0.7-0.5c-5.5-4-7.6-11.7-2.2-17q5.2-5 10.3-10.1l20.7-20.2 4.1-4c3.5-3.4 7-6.8 10.6-10.1 2.2-1.9 8-5.7 8.5-9 0.3-2.1-2.3-5.8-3.3-7.8l-4.6-9.4c-2.7-5.3-5.2-10.7-7.8-16.1-5.4-11.2-10.8-22.4-16.1-33.6l-31.4-67.5c-8.9-19-16.8-39.1-28.4-56.7l-2.3-3.4c-1.9-2.9-3.6-5.7-4.8-9.2-1.2-3.4-2.6-7.2-4.8-10.1-5-6.8-14.6-10.6-22.7-12-1.1-0.3-0.7-1.9 0.3-2zm-242.1-17.7c0.7 0 0.8 1 0.2 1.2-9.7 2.9-19 7.6-26.6 14.4-3.6 3.3-7.2 7-9.5 11.4-0.8 1.6-1.3 3.4-1.6 5.2l-0.1 0.7c-0.6 3.3-1.4 5.1-3.1 7.8l-0.3 0.4c-9.6 14.9-16.4 31.4-22.5 47.9l-13.4 36-13.4 36q-6.5 17.4-13 34.8c-2.4 6.4-4.8 12.8-7.3 19.2-1.1 2.7-2.2 5.5-3.2 8.3-0.1 0.4-0.5 2.7-0.8 3.2l0.1 0.2c2.7 4.6 9.9 8.4 14 11.7l14 11.4c10.1 8.1 20.4 16 30.1 24.4 6.1 5.4 2.3 14.9-4.5 17.1-11.4 3.7-22.6 8.2-33.9 12.4-4.5 1.7-9.3 3.2-13.8 5.1l-2.7 1.1c-1.1 0.5-0.6 0.5-0.5 2.5 0 2.1 0.6 4.2 1 6.3q5.6 34.3 12 68.6c15 80.8 32.9 161 53.4 240.6 10.3 40.2 21.4 80.2 31.9 120.4 10.5 40 24.4 79.5 37.6 118.7 3.8 11-13.8 15.8-17.4 4.8-15.3-46.1-29.2-92.7-43.6-139-25.6-82.4-45.7-166.6-63.6-251q-13.2-62.7-24.2-125.9-2.1-12-4.1-24l-1.9-11.7c-1.3-8.4-2.1-17.1 4.4-23.7 6.4-6.5 17.3-8.8 25.6-11.8l0.6-0.2c5.3-2 10.7-3.9 16-5.9-7.8-6.2-15.6-12.5-23.4-18.7-6.4-5-12.8-9.9-19-15-5.2-4.2-9.3-9.6-9.9-16.4-0.5-7 2.5-13.5 4.9-19.9l0.2-0.7q3.6-9.6 7.2-19.1l15.1-39.6c9.6-25.1 18.8-50.4 28.9-75.3 4-9.9 8.3-19.6 13.5-28.9 2.5-4.5 5.1-8.9 8-13.1 3.3-4.8 6.2-7.1 11.2-9.7 8-4.2 14.3-11.2 22.4-15.6 7.9-4.2 16-6.5 25-6.6zm26.1-44.8c0.3-0.5 1.1-0.3 1.1 0.3 0.2 12.5-2.8 25.3-4.6 37.6-1.8 12.4-2.4 25.5-5.1 37.7q0 0.9-0.3 1.7l-0.1 0.4c-1.1 3.4-4 6.4-7.6 7.3 1.1 6.2 2.2 12.4 3.1 18.7 1.5 10.7 2.9 21.5 4.3 32.3l1.6 13q2.3 18.3 4.5 36.6c3.8 1.5 7.7 2.9 11.7 4 9.1 2.6 18.4 3.7 27.8 4.6 19.2 1.9 38.5 2.7 57.7 3.8l4.1 0.2c21.7 1.3 43.4 1.5 65-0.7 10.6-1.1 21.3-3 31.7-5.6 5.3-1.3 10.4-3.3 15.7-4.6 1.8-0.4 3.3-1.4 5.1-2.5 0.8-1 1.9-1.7 3.3-2l0.4-0.1h0.4l0.1-0.1q1.6-0.2 3.1 0c0.4-9.5 0.8-19 1.3-28.5 1.4-25.6 5.3-52.2 0.1-77.6-0.2-0.8 1-1.1 1.3-0.3 10.2 26.8 9 56.1 9.5 84.3 0.5 27.6 0.2 55.3 0.1 82.9 2 0.8 3.7 2 5.1 3.6 2.8 3.2 3.6 8.7 0 11.8-1.6 1.4-3.3 2.3-5.2 3q-0.1 36-0.5 71.9c4.6 3.5 5 11.9-0.2 15.4-0.8 77.7-2.2 155.3-3.4 233l-2.5 162.9c-0.3 21.7-0.8 43.4-1 65.1l0.1 0.1 0.6 0.2c0.9 0.5 2.2 1.2 2.5 1.9q0.1 0.2 0.1 0.4c1.5 0.2 3 0.9 4.3 2.1 3.1 3 2.5 7.6 0 10.6l-0.7 0.8c-1.6 1.9-4.6 2.7-7 2.3 0 13.5 0.1 27.1 0.1 40.6q-0.1 6.2-0.2 12.4l-0.2 10c-0.1 5.6-0.6 12.8-6.4 15.4-6.5 2.8-12.4 0.5-15-6.2-0.7-1.8-0.6-3.4-0.3-5.2-0.1-2.7-0.5-5.8-0.5-8.3l0.3-10.3q0-2.4 0.1-4.8h-0.2c-23.2 1.2-46.6 0.6-69.9 0.6h-10.4c-8.6 0-17.2 0-25.9-0.4l-3.2-0.1c-6.5-0.3-13.3-0.4-19.9-1q1.2 10.3 2.3 20.7c0.7 6.5-6 12-12.1 12-7.1 0-11.2-5.6-12-12-4.1-30.5-5.7-61.3-9.6-91.8-3.4-27.4-6.4-54.8-9.4-82.2l-1.1-9.1c-11.1-99.6-21.9-199.3-32.2-299.1l-4.9-46.6c-4.8-47-9.7-94-13.8-141.1q-3.5-40.3-6.6-80.7c-1.5-19.8-2.4-39.5-3.1-59.3-2.4-2.4-3.6-6.1-2.5-9.8q0.9-3.3 2.1-6.6-0.1-3.2-0.1-6.4c-0.1-2 2-3.1 3.6-2.7 3-7.3 6.3-14.4 9.1-21.6 4.4-11.6 8.1-24.1 14.4-34.9zm-248.4 125.5c46.5-29.2 101.8-50.1 157.2-47.9 1.3 0.1 1.7 2 0.4 2.3-29.6 6.6-59.5 14.6-87.5 26.3-28.1 11.8-54.7 27.6-78.5 46.6-43.9 35-78 80.6-100.4 132-13.2 30.1-22.4 61.9-30.4 93.7-8.5 33.6-15.5 67.7-21.4 101.9-11.5 67.6-18.2 135.9-21.8 204.3-3.6 69.7-2.1 139.3-4.7 209-0.5 12-17.7 11.8-18.6 0-5.9-79.2-2.6-159.6 2.8-238.8 4.9-71.1 13.4-142 27.2-212l1.2-6.1c12.8-64.7 28.3-131 59.3-189.7 26.5-50 67.4-91.6 115.2-121.6zm645.5 309.4c0.3-0.7 1.2-0.7 1.4 0 5.3 14.9 5.5 31.6 6.9 47.2l0.1 1.2c1.4 14.3 2.4 28.6 3.4 42.9l0.3 5.4c3.8 58.3 8.6 116.5 15.7 174.6 7.1 57.8 16.8 115.2 27.2 172.4 1.1 6.4-1.7 12.9-8.4 14.8-5.9 1.6-13.4-2.1-14.7-8.4-6.4-32.9-11.7-65.8-16.3-99-8.3-58.4-14.4-117-18.3-175.9-2-29.5-3.2-59.1-3.7-88.7-0.2-13.7 0.1-27.5 0.9-41.2l0.1-3.2c0.8-14 0.8-28.7 5.4-42.1zm-502.3 371.5c0.6-0.3 1.4 0.4 1 1-9 14.6-21.2 27.3-32.9 39.7-12.3 13-24.3 26.4-36.9 39.1-9.1 9.2-23.6-5.6-14.1-14.1 13.5-11.8 27.6-23.1 41.3-34.7l5.9-5.1c11.3-9.5 22.8-18.9 35.7-25.9zm427.5-7.3c-0.6-1.3 0.9-2.3 2-1.5 7.2 5.9 13.7 13 20.7 19.2 7 6.2 14.2 11.9 21.6 17.6 7.4 5.6 15 11 22.8 16.1 6.5 4.3 13.1 7.7 19.9 11.2 3.1 0.4 6 2 8.4 4.9 3.6 4.6 4 13.3-1.1 17.3l-0.9 0.7c-5.9 4.7-13 5.3-18.9 0-6.5-5.8-12.7-12.3-19-18.5l-1.8-1.8c-6.8-6.6-13.4-13.4-19.6-20.4l-5.6-6.4c-10.4-11.9-21.3-24.7-28.5-38.4zm-33.4-685.6c-1.2-0.8-0.5-3 1-2.4l2.8 0.9c11.4 4 23.1 8.4 33.5 14.5 11.2 6.6 21.5 14.4 31.3 22.8 20.3 17.4 37.7 38.8 52.4 61 29.5 44.7 47.8 95.9 62.5 147.2 15.7 54.6 27.8 110.4 37.7 166.3 10.1 56.9 17.8 114.3 22.9 171.8 2.5 28.3 4.2 56.7 5 85.1 0.5 14.6 0.5 29.3 0.3 43.9q0 5.6 0.1 11.3l0.1 11.3c0.1 7.1 0.9 14.6-0.7 21.6-2.8 11.2-21.3 9.1-20.7-2.4-0.6-3.8-0.6-7.7-0.4-11.7q-0.2-0.7-0.3-1.5c-0.3-1.6-0.1-3 0.5-4.2q0.2-2.8 0.2-5.6c0.1-7.5 0.1-15-0.1-22.6-0.4-15.8-1-31.7-1.7-47.6-1.3-31.7-3-63.5-5.6-95.1-8.9-110.1-27.8-220.9-59.5-326.9-14.8-49.2-35.1-97.5-64.2-140-12.9-18.9-27.5-36.3-43.7-52.5-16.3-16.3-34.2-32.5-53.4-45.2zm-219.5 710l2.2 15.9q1.7 11.9 3.2 23.9c7.1-1 14.2-1.4 21-2 11.8-1 23.7-1.5 35.6-2 24.6-1 49.2-2.8 73.8-2.7q0.4 0 0.7 0.1l1.3-31.4h-17.3c-14.6-0.1-29.3-0.2-43.9-0.3-13.2-0.1-26.3-0.1-39.5-0.4l-5.7-0.1c-9.9-0.3-21 0.2-31.4-1zm139.2-45.5q-1 0.1-2.2 0.1c-3.4 0.2-6.8 0.1-10.3 0.1q-10.9 0.1-21.8 0.1-21.9 0-43.7 0.3c-15 0.2-30 0.4-45 0.5-7.3 0-14.5-0.2-21.8-0.4 1.2 10.3 2.4 20.6 3.8 30.9 11.2-1.5 23.4-0.7 34.4-0.8l1.4-0.1c15.1-0.2 30.1 0 45.2 0q23.2 0 46.5 0.2l12.7 0.1v-0.6c0.4-10.2 0.6-20.3 0.8-30.4zm-150.4-49.5c1.4 12.2 2.7 24.5 4.1 36.7q1.3-0.2 2.7-0.4c7.3-0.8 14.5-1.4 21.9-1.9 14.5-0.9 29.1-1.3 43.7-1.7q22.5-0.6 45-1c7.2-0.1 14.5 0 21.8 0 3.4 0 6.9-0.1 10.3 0.2q0.6 0 1.2 0.1l0.2-18.4q0.1-4.5 0.2-9.1c-11.3 0.7-22.7 0.4-34 0.4h-2.6c-14.1 0.1-28.3-0.1-42.4-0.4-14.6-0.3-29.2-0.8-43.7-1.7q-8.9-0.6-17.7-1.6l-2.9-0.3c-2.5-0.3-5.2-0.5-7.8-0.9zm152.2-51.7c-27.1 2.2-54.1 3.1-81.3 3.3l-4.1 0.1c-24 0.2-48.2 1.2-72.3 0.5q2.1 18.8 4.3 37.5c3.5-0.2 6.9-0.2 10.3-0.3 6.9-0.2 13.7-0.3 20.6-0.3 14.1 0 28.2 0.1 42.4 0.1 14.6-0.1 29.1-0.3 43.7-0.6 11.8-0.2 23.8-1.1 35.6-1.1zm1.1-53.3c-3.1 1.1-6.8 1.1-10.9 1.3l-10.5 0.5q-7.3 0.4-14.6 0.7-24.3 0.9-48.7 1.6c-16.6 0.6-33.3 0.9-50 0.4-8.1-0.3-16.2-0.7-24.3-1.4-2-0.2-4.1-0.3-6.1-0.4q2.8 24.8 5.7 49.6c23.9-2.9 48.1-4.8 72.1-7.8l21.6-2.8c21.7-2.7 43.3-5.4 65-7.7zm1.2-53.9c-4.6 1.1-9.9 1.1-14.3 1.3l-0.8 0.1c-8.4 0.6-16.9 1-25.3 1.2-16.5 0.4-33 0.6-49.4 0.7h-10c-13.2 0.1-26.4 0.1-39.6-0.2-8.5-0.2-17-0.6-25.5-1-2.5-0.1-5.1-0.2-7.7-0.3q2.7 23.5 5.4 47c2.7-0.5 5.5-0.8 8.2-1.3 6.8-1.1 13.7-2 20.5-2.9 14.9-1.7 29.9-3 44.9-4.1 15.4-1.1 30.8-2.1 46.1-3.2l10.9-0.7q5.5-0.4 10.9-0.7c6.2-0.4 13.4 0 19.6-1.3 1.6-0.7 3.5-0.9 5.3-0.5zm1.4-63.1c-1.6 2-3.9 3.1-6.8 3.5-14.8 1.9-30 2.2-44.9 3.1l-2.6 0.2c-15.4 1-30.9 1.8-46.3 2.6q-23.8 1.3-47.6 2.1c-6.7 0.2-13.5 0.3-20.2 0.2l-2.9-0.1c-2.8 0-5.7 0-8.6-0.1q2.4 22 4.9 43.9c3-0.3 5.9-0.5 8.8-0.8 8.5-0.9 17-1.8 25.4-2.5 16.1-1.2 32.2-2 48.4-2.8 16.4-0.8 32.9-1.4 49.4-2.1 8-0.4 16-0.9 24-1.6 5.6-0.5 12.2-2.4 18.1-1.7q0.4-22 0.9-43.9zm1.3-56.5q-0.3 0.6-0.9 1.1c-6.5 6.5-14.5 6-23.2 6.6l-0.5 0.1q-12.7 1.1-25.4 2c-16.9 1.2-33.9 2.1-50.9 2.8-17.3 0.8-34.8 1.3-52.2 1-11.1-0.2-22.8-0.2-34.1-1.3q2.6 24.2 5.2 48.4c3.2-0.6 6.4-1 9.5-1.5 7.7-1.2 15.3-2.4 23-3.3q23.2-2.7 46.3-4.9c13.2-1.3 26.4-2.6 39.6-3.8l8-0.7c15.7-1.3 31.7-3.5 47.5-3.8 2.6-0.1 5.6 1.3 7.1 3.6q0.5-23.2 1-46.3zm1.1-45.7c-4 0.4-8.3 0.2-12 0.3q-14.1 0.4-28.2 0.9l-56.4 1.6c-19.2 0.6-38.5 1-57.7 0.7-8.4-0.1-16.9-0.1-25.3-0.6l-2.9-0.1c-3.4-0.3-7.7-0.3-11.9-0.7l5 45.5c11.3-1.6 22.9-2.2 34.1-3.2l2.4-0.2c16.5-1.5 33.1-2.5 49.7-3.6 16.9-1.1 33.9-2.5 50.8-4 8.5-0.7 17-1.4 25.4-2.2l1.1-0.1c8-0.8 15.5-2.6 22.6 2.1 1 0.7 1.8 1.6 2.4 2.7q0.5-19.6 0.9-39.1zm1.3-53.2c-34.3 1.4-68.6 2.4-103 2.9-19.3 0.2-38.6 0.1-58-0.4-8.4-0.1-16.8-0.5-25.2-1.2l-3.1-0.2c-4-0.4-8.2-0.6-12.4-1q2.6 23.5 5.2 47c4.1-0.8 8.3-1.1 11.9-1.6l0.8-0.1c9-1.2 18-1.9 27-2.7 17.4-1.6 35-2.6 52.5-3.4 17.9-0.9 35.9-1.6 53.8-2.4l17.9-0.8q4.5-0.2 9-0.4 6.4-0.2 12.8-0.5c2.1-0.1 4.3-0.4 6.4-0.3l0.6-0.1q0.4 0 0.8 0 0.8-0.7 1.8-1.1l0.4-0.2zm-207.3-50.4q2.4 21.2 4.7 42.4c4.9-0.6 9.8-0.9 14.5-1.3 9.4-0.9 18.9-1.6 28.4-2.1l18.9-0.8c12.6-0.6 25.2-1.2 37.8-1.6 34.5-1.3 69-2.7 103.5-4.5q0.3-14.4 0.7-28.7c-1.6 1.8-4 2.9-7.2 2.9-36.2-0.1-72.4 0.1-108.6-0.5-18.1-0.3-36.2-0.7-54.3-1.6-8.9-0.5-17.8-1.4-26.6-2.6-3.7-0.5-7.8-0.9-11.8-1.6zm-5.8-50.2q2.5 21.7 5 43.3c4.5-0.8 9.1-1.2 13.3-1.8 9-1.2 18.1-2.2 27.2-2.7 17.6-1 35.3-1.5 53-1.9 36.2-0.7 72.4-0.7 108.6-1 3.4 0 6 1.3 7.6 3.3q0.4-13.5 0.8-27c-3.5-0.4-7-0.9-10.2-1.2q-14.8-1-29.6-1.8c-20.5-1.2-41.2-2.2-61.8-3.1-20.6-0.9-41.2-1.8-61.8-2.6l-9-0.3c-14.4-0.5-29-1.2-43.1-3.2zm-6.5-54.4q2.6 21.9 5.2 43.9l0.6 4.5c17.2-3.3 35.4-4.3 52.8-5.1 20.6-0.8 41.2-1.3 61.8-1.2 20.7 0 41.2 0.5 61.8 1.4q15.5 0.6 30.9 1.5c2.9 0.1 6.2 0 9.6 0.1q0.1-3.5 0.2-6.9 0.5-14 0.9-28c-6.9 3.6-16 5.1-23 6.6l-0.8 0.2c-11.5 2.6-23.3 4.2-35.1 5.3-23.1 2-46.5 1.2-69.6-0.7l-4.1-0.4c-20.3-1.7-41.4-4-61-9-9.4-2.4-19.1-5.7-27.5-10.6q-1.3-0.8-2.7-1.6zm195.5-173.8c0.2-0.8 1.4-1 1.8-0.3 2.7 5.2 3.7 11.5 5.6 17 2.1 6 4 12 6.3 18 4.7 12.3 10.2 24.2 16.8 35.6 6.6 11.4-11.8 19.5-16.6 7-5-12.8-9.1-26-11.6-39.5-1.2-6.6-2.2-13.3-2.6-20-0.3-5.8-1.1-12.2 0.3-17.8z"/>
					</g>
					<g id="head/Long-Curly">
						<path id="ðŸŽ¨-Background" fill-rule="evenodd" class="s0" d="m918.1 1205.8c-46.5 31.1-106.7 40.4-160.8 26.6-29.1-7.5-55.7-23.4-85.7-27.7-13.7-1.9-27.6-1.9-41.4-0.3-11.5 0.9-22.6 5.3-34.1 6.4-67.2 19-113.1-49-116.6-109-12.5-93.6 16.8-279.8 87.6-345.3 91.1-69.8 227.5-47.4 312.6 21.8 122.5 97.8 192.1 326.4 38.4 427.5z"/>
						<path id="ðŸ–-Ink" fill-rule="evenodd" class="s1" d="m1147.8 1162.4c-2.5 24.7-9.1 48.7-20.1 71-5 10.1-12.2 20.2-22.4 25.5-6 3.1-12.7 4.7-19.2 4.5-4.3 5.7-10.4 10.1-17.9 12.8-10.1 3.7-20.8 2.4-31-0.6-3 2.6-6.7 4.6-10.6 5.8-6.5 2.2-12.9 2.2-19.4 1.6q-2.1 1.2-4.7 2.1c-9.2 3-17.8-0.4-26.1-4.2q-0.7-0.4-1.4-0.7-2.8-0.1-5.7-0.1c-0.5 8.4-13.4 14.1-19.4 6.9-1.4-1.7-2.9-2.5-4.5-3.6-2.8 2.7-7.3 3.8-11.1 3q-4.4-1-8.2-2.8c-3.2 0.3-6.4 0.3-9.6-0.5-7.9-2-11.2-9.4-10.1-16.3-6.6-1.4-13.1-4.4-18.2-8.9-1.5 0.3-3.1 0.6-4.7 0.8-5 0.6-10.2 0.2-15-1.2-6.9-1.9-13.6-5.8-18-11.5q0.1 0.7 0.4 1.7c0.1 0.4-0.5 0.6-0.7 0.3-1.2-2.6-2.8-5.3-3.7-8.1-12.9 2.5-26.2 3.4-39.4 2.7-17.3-1-34.5-4.4-50.8-10.2-8.9-3.2-17.9-6.8-26-11.8-7.7-4.7-13.3-9.4-17.9-17.2-2.7-4.6 1.7-9.3 6.4-8.4 18 3.4 33.6 14.5 51.1 19.9 17 5.2 34.5 7.7 52.2 7.1 59.5-2.2 112.8-43.8 127-102 4.3-17.5 5.6-35.5 6.6-53.5q1.5-28.7 1.8-57.5c0.3-19.2 0.2-38.5 0.4-57.7 0.1-8.9 0.5-17.7 0.8-26.6q-5.9-1.3-11.7-4.2c-4.8-2.5-9.3-5.9-13-9.8-3.3-3.5-5.6-8.1-9.3-11.2-3.8-3.2-9.3-2.9-13.9-3.7-5.3-0.9-10.4-2.7-15-5.3-6.5-3.8-11.6-8.8-15.5-14.8-13.8 2.6-28.2-1.1-41.4-5.8-16.5-5.7-32.8-11.8-49.1-17.7-7.4-2.7-14.9-6.1-22.7-7.1-7.9-1-15.7-0.3-23.6-2-13.1-2.8-25.7-9.7-36.9-17.4-10.4 5.8-22.6 7.5-34.4 3.8-5.8-1.9-10.9-5.1-15.2-9.4 0 4.5-0.6 9-0.6 13.7 0 0.6 0 0.9-0.1 1q0.1 0.3 0.2 0.6c0.3 1.1 1.3 2.2 1.8 3.4 0.7 2 1.1 4.3 1.7 6.4 1.4 4.6 2.5 9.3 2.3 14.1-0.6 9.7-5.3 18.1-11.4 25.5-2.7 3.3-6 6.7-9.5 9.8q-0.5 1.3-1.1 2.6c-0.9 2.2-1.6 4.6-2.4 7 1.7 2.9 3.2 5.9 4.5 9 4.8 11.5 4.9 24.5 1.8 36.6 4.8 6.5 6.7 15.4 5.9 23.4-1.3 13.6-9.4 22.7-15.6 34.2-0.5 1-1.9 5-2.1 4 0 3.4 1.2 7.5 1.3 10.8 0.1 6.9-0.8 13.9-2.3 20.6-2.5 10.8-7.2 20.6-13.5 29.6 1.5 17.1-1.7 33.5-9.4 48.5 2.3 3.6 3.7 7.8 4 12.3 0.3 4.3-0.4 8.6-1.6 12.7q0.6 0.4 1.2 0.8c6.1 1.8 11.9 8.9 16.1 13.3 5.2 5.4 9.9 11.4 14.2 17.5 9.7 13.7 17.6 29.5 17.7 46.7 0 1.9-0.4 3.7-1.1 5.3 3.6 9.1 2.6 21.7-5.9 26.6-3.6 2.1-5.9 2.8-9 6-2.9 3-5.7 6.1-8.9 8.8-7.4 6-16.5 9.8-26 7.4-4.2 0.8-8.4 0.8-12.6 0.3-6.2 3.9-13.1 6.3-20.9 5.9q-1.8-0.1-3.6-0.4c-8.3 4.8-17.2 8.1-27.3 8.8-8.6 0.6-17.8-1.4-25.3-5.7-2.2-1.3-6.5-3.9-8.8-6.5-0.9 0.4-1.9 0.8-2.4 1.1-16.9 9-36.6 16.7-55.9 11q-4.1-1.2-7.8-3c-6.2-3-11.4-7.2-15.4-12.3-13.7 6-29.6 6.8-43 0.2q-4.1-0.3-8.3-1.3c-14.9-3.6-28.9-16.3-30.3-32.1-6.5-1.8-12.7-5.3-17.9-10.5-10.4-10.5-13.7-24.6-11.2-38-15-8.4-24.5-26-25.5-43.4-1.1-20 10.2-37.9 24.1-52.1-3.9-5.4-6.4-12-6.6-18.5-0.7-16.3 9.5-31.2 19.6-43q1.4-1.6 2.9-3.2-1.8-3-3.1-6.4c-5.2-15-2.1-34.1 2.8-48.8 6.2-18.1 17.1-34.6 32.1-45.1 0.9-2.1 1.9-4.1 2.9-6-2.3-5.2-3.6-10.8-3.8-16.4-0.6-18.5 9.7-35.8 21.3-49.4 16-18.7 38.9-31.4 63.1-36.3-2.8-14.4 1.7-30.1 12.1-42.4 13.7-16.3 34.5-19.8 54.8-18.3q-0.1-1.4 0-2.7c0.6-12.4 12.1-23.1 21.4-29.8 8.8-6.4 18.7-10.7 29.1-13-1.5-7.5-1.1-15.3 1.2-22.9 3.8-12.4 11.8-23 22-30.3-4.3-9.7-3.1-21.4 3.2-30.4 6.9-9.9 17.4-16.5 28.8-20.2 1.5-4.4 3.8-8.7 6.7-12.2 11.2-13.8 29.5-17.1 46.4-15.2 12-20.6 35.5-33.3 59.2-34 5.5-2 11-3.8 16.7-5.3 3.7-5.9 9.7-10.6 17.1-13.6 16.8-6.8 33.4 0.1 50.3 2.1q2.1 0.3 4.2 0.4 2.2 0 4.5 0.1c14.9 0 30-3.2 44.2 2.3 8.6 3.3 16.1 9 20.6 16.5 28.5 0.2 57.5 18.2 66.8 45.5 15.8-3.4 33.1-4.6 48 1.2 8.2 3.1 15.5 8.5 19.7 16.3 4.7 8.9 3.9 18.3 5.8 27.8 0.9 4.1 1.9 6.4 6.4 6.7 4.6 0.3 9.1-0.6 13.7-0.1 10.1 1.2 19.4 6.5 25.9 14.2 6.3 7.5 10.4 17.2 10.1 27.1-0.1 5.7-1.8 11.2-3 16.7-1 4.1-2 8 1.6 11 3.6 2.9 8.1 4.7 11.8 7.6 3.8 3.1 6.9 6.9 8.9 11.3 4.2 9.1 4.4 19.2 3.6 28.9-0.8 9.9-2.1 19.6-1.4 29.6 0.8 10.6 3.1 20.9 5.3 31.3 4.1 19.6 8.6 41.1 1.9 60.6-1.7 4.9-4 9.8-7 14.1-1.6 2.3-8.4 8.5-8.2 11.4 0 0.5-0.3-0.1 0.6 1 1.3 1.6 4.1 2.6 5.8 3.7 3.9 2.7 7.3 5.6 10.1 9.4 12.1 16.5 6.4 39 0.6 56.8-1.1 3-2.2 6.9-3.1 10.9 6.2 8 11.4 16.8 16.5 25.8 5.2 9.1 6.8 20.1 8.6 30.3 1.8 10.7 3.3 21.5 4.4 32.3 2.6 24.2 6.2 48.4 3.6 72.7zm-278.6-600.6c-2-1.3-4.2-2.2-6.4-3q1.4 2.2 2.4 4.6 2-0.9 4-1.6zm-333.7 197.1q-0.6 0.6-1.3 1.1c-2.2 2.1-4.3 5-5.4 8.1q0.1 0 0.2 0c1.9-3.2 4.1-6.3 6.5-9.2zm338.8 476.1q-0.4-0.8-0.7-1.6-0.3-0.5-0.5-1.1-2.3 0.9-4.7 1.7c1.9 0.7 3.9 1 5.9 1z"/>
					</g>
					<g id="face/Smiling">
						<path id="ðŸ–-Ink" fill-rule="evenodd" class="s1" d="m830.8 1141.1c-8.7-3.5-16.5-9.5-22.1-17-2-2.7-2.5-5.4-2.1-8 0.5-2.8 2.1-5.4 4.4-7.2 2.4-1.7 5.2-2.6 8-2.1 2.5 0.4 4.9 1.7 6.8 4.5l0.4 0.5c3.4 4.6 7.8 8.3 12.8 10.7 4.8 2.4 10.2 3.4 15.8 2.8 10.6-1.2 18-6.9 25.8-14.8q1.4-1.4 2.9-3c0.6-0.9 1.4-1.5 2.4-1.9 1-0.3 2.2-0.3 3.3 0.1 1.1 0.4 2 1 2.6 2 0.6 0.8 1 1.9 0.9 3.2-0.8 8.1-5 15.3-11 21-6.7 6.3-15.5 10.7-23.9 12.2-9.2 1.7-18.5 0.5-27-3zm36.3-132c49.7 8.6 23.9 94.2-39.5 47.2-7.6-6.1 1.6-19.5 9.7-14.3 8.8 6.7 26.6 21.6 39 8.6 10.5-14.7-4.4-28.6-14.2-34.5-2.5-1.8-0.5-7.9 5-7zm-118.6-47.7c1-13.4 21.4-16.4 23.5-3.1 1.8 11.8-0.3 22.8-5.7 33.5-5.1 10.2-18 5.4-18.9-3.9-1.3-12.5 0.4-18.1 1.1-26.5zm155.3-5.9c2.9-3.7 7-6.3 11.9-4.8 15.4 4.5 10.9 26.3 5.5 36.9-3 5.8-12.5 7.3-16.7 2.2-7-8.3-10.4-24.9-1.5-33q0.4-0.7 0.8-1.3zm-137.7-52.7l2.4-0.5c7.5-1.3 16.9-2.5 22.2 3.5 2.8 3.2 3.8 9.2 0 12.3-6.7 5.4-14 3.3-22 3.7-6.6 0.4-12.9 1.5-19.3 3.3-13.9 4-25.2 11.3-37.1 19.2-1.6 1.1-3.2-0.9-2.4-2.4 6.8-13.4 20.1-24.5 33.4-31.2 7.1-3.6 14.9-6.6 22.8-7.9zm123.7-6.1l1.9 0.4c20.2 4.3 46.5 12.7 56.1 32.6 0.4 2.8 0 3.4-0.3 3.8l-0.1 0.1c-0.3 0.4-0.5 0.8-1.7 1.2q-0.5-0.1-1.1-0.2c-4.3-1.2-7.8-2.8-11.2-4.4l-3.6-1.8c-4.3-2.1-8.5-4.1-13.1-5.6-9.6-3.1-19.6-5.3-29.6-6.5-2.2-0.3-4.3-1-6-2.3-1.6-1.2-2.8-2.9-3.3-5.1-0.7-2.8-0.5-5 1-7.6 1.2-1.9 2.8-3.2 4.7-4 1.9-0.8 4.1-1 6.3-0.6z"/>
					</g>
					<g id="accessories/*-None">
					</g>
				</g>
			</g>
		</g>
	</g>
</svg>